<svg width="20" height="18" viewBox="0 0 20 18" fill="none" xmlns="http://www.w3.org/2000/svg">
<path fill-rule="evenodd" clip-rule="evenodd" d="M18.5302 1.53C18.6626 1.38782 18.7348 1.19978 18.7313 1.00548C18.7279 0.811175 18.6492 0.62579 18.5118 0.488377C18.3744 0.350964 18.189 0.272252 17.9947 0.268824C17.8004 0.265396 17.6123 0.337519 17.4702 0.469999L1.47015 16.47C1.39647 16.5387 1.33736 16.6215 1.29637 16.7135C1.25538 16.8055 1.23334 16.9048 1.23156 17.0055C1.22979 17.1062 1.24831 17.2062 1.28603 17.2996C1.32375 17.393 1.3799 17.4778 1.45112 17.549C1.52233 17.6203 1.60717 17.6764 1.70056 17.7141C1.79394 17.7518 1.89397 17.7704 1.99468 17.7686C2.09538 17.7668 2.19469 17.7448 2.28669 17.7038C2.37869 17.6628 2.46149 17.6037 2.53015 17.53L5.37715 14.683C6.74415 15.327 8.31715 15.75 10.0002 15.75C12.6842 15.75 15.0902 14.673 16.8202 13.345C17.6872 12.68 18.4032 11.938 18.9092 11.209C19.4012 10.5 19.7502 9.723 19.7502 9C19.7502 8.277 19.4002 7.5 18.9092 6.791C18.4032 6.062 17.6872 5.321 16.8212 4.655C16.5585 4.453 16.2812 4.25867 15.9892 4.072L18.5302 1.53ZM14.9002 5.161L13.1292 6.932C13.6066 7.65313 13.8201 8.51714 13.7336 9.37766C13.647 10.2382 13.2656 11.0423 12.6541 11.6539C12.0425 12.2655 11.2383 12.6468 10.3778 12.7334C9.51729 12.82 8.65329 12.6065 7.93215 12.129L6.51515 13.545C7.62067 14.0019 8.80396 14.2413 10.0002 14.25C12.2872 14.25 14.3802 13.327 15.9072 12.155C16.6692 11.57 17.2712 10.937 17.6772 10.354C18.0962 9.75 18.2502 9.277 18.2502 9C18.2502 8.723 18.0962 8.25 17.6772 7.646C17.2712 7.063 16.6692 6.43 15.9072 5.845C15.5938 5.60433 15.2588 5.37633 14.9002 5.161ZM9.02915 11.031C9.44901 11.2315 9.92072 11.2969 10.3793 11.2183C10.8379 11.1396 11.2608 10.9207 11.5898 10.5917C11.9188 10.2627 12.1377 9.83974 12.2164 9.38115C12.2951 8.92256 12.2297 8.45086 12.0292 8.031L9.02915 11.031Z" fill="#A6A6A6"/>
<path d="M10 2.25C11.032 2.25 12.024 2.41 12.951 2.681C12.9916 2.69311 13.0283 2.71562 13.0575 2.74629C13.0867 2.77697 13.1074 2.81474 13.1175 2.85588C13.1276 2.89701 13.1268 2.94007 13.1151 2.98078C13.1035 3.0215 13.0814 3.05846 13.051 3.088L12.227 3.913C12.1966 3.94368 12.1589 3.96597 12.1173 3.97771C12.0758 3.98945 12.0319 3.99024 11.99 3.98C11.3373 3.82952 10.6698 3.75237 10 3.75C7.713 3.75 5.62 4.673 4.093 5.845C3.331 6.43 2.729 7.063 2.323 7.646C1.904 8.25 1.75 8.723 1.75 9C1.75 9.277 1.904 9.75 2.323 10.354C2.677 10.864 3.181 11.411 3.811 11.931C3.927 12.026 3.938 12.201 3.831 12.308L3.123 13.017C3.07964 13.061 3.02132 13.087 2.95962 13.09C2.89793 13.093 2.83738 13.0726 2.79 13.033C2.14601 12.5023 1.57476 11.889 1.091 11.209C0.6 10.5 0.25 9.723 0.25 9C0.25 8.277 0.6 7.5 1.091 6.791C1.597 6.062 2.313 5.321 3.179 4.655C4.91 3.327 7.316 2.25 10 2.25Z" fill="#A6A6A6"/>
<path d="M9.99998 5.25C10.1186 5.25 10.2356 5.25533 10.351 5.266C10.548 5.285 10.619 5.52 10.48 5.66L9.26698 6.872C8.94412 6.98393 8.65085 7.16762 8.40922 7.40925C8.1676 7.65087 7.98391 7.94414 7.87197 8.267L6.65998 9.48C6.51998 9.62 6.28497 9.548 6.26597 9.351C6.21711 8.8312 6.27732 8.30693 6.44275 7.81174C6.60819 7.31655 6.8752 6.86137 7.2267 6.47532C7.57819 6.08928 8.00643 5.78089 8.48398 5.56989C8.96153 5.35889 9.47788 5.24994 9.99998 5.25Z" fill="#A6A6A6"/>
</svg>
